<svg id="Layer_1" data-name="Layer 1" xmlns="http://www.w3.org/2000/svg" viewBox="0 0 1920 77.07"><defs><style>.cls-1{fill:#fff0bc;}.cls-2{fill:#ffe497;}</style></defs><path class="cls-1" d="M0,40.43A1120.2,1120.2,0,0,0,127.88,68.07C237.28,85.22,348.54,89.2,459.05,83.32c23-1.46,46-2.14,69-3.53C633.34,74,738.34,64.44,843.58,58.37c87-5.06,174.32-7.6,261.45-3.53C1206.7,59.36,1307.32,75.41,1408,89.45c9.1,1.16,18.14,2.87,27.3,3.49,20.1,3.38,40.42,5.41,60.65,8,52.47,6.13,105.18,10.66,158,11.44,69.07.9,138.49-3.92,206.08-18.64a594.88,594.88,0,0,0,60-16.45V117.5H0Z" transform="translate(0 -40.43)"/><path class="cls-2" d="M1561,74.62c48.23-4.07,96.78-4,145.07-.85,50.4,3.41,100.49,10.65,150.11,20a14.64,14.64,0,0,0,3.85-.08c-67.59,14.72-137,19.54-206.08,18.64-52.84-.78-105.55-5.31-158-11.44-20.23-2.55-40.55-4.58-60.65-8,13.63-3.09,27.47-5.12,41.2-7.73C1504.45,80.36,1532.7,77.19,1561,74.62Z" transform="translate(0 -40.43)"/></svg>