<svg id="Layer_1" data-name="Layer 1" xmlns="http://www.w3.org/2000/svg" viewBox="0 0 1920 77.07"><defs><style>.cls-1{fill:#fff0bc;}</style></defs><path class="cls-1" d="M1920,77.07a1120.2,1120.2,0,0,0-127.88-27.64C1682.72,32.28,1571.46,28.3,1461,34.18c-23,1.46-46,2.14-69,3.53-105.25,5.81-210.25,15.35-315.49,21.42-87,5.06-174.32,7.6-261.45,3.53C713.3,58.14,612.68,42.09,512,28.05c-9.1-1.16-18.14-2.87-27.3-3.49-20.1-3.38-40.42-5.41-60.65-8-52.47-6.13-105.18-10.66-158-11.44C197,4.26,127.57,9.08,60,23.8A594.88,594.88,0,0,0,0,40.25V0H1920Z"/></svg>