<svg id="Layer_1" data-name="Layer 1" xmlns="http://www.w3.org/2000/svg" viewBox="0 0 689.41 482.61"><defs><style>.cls-1{fill:#ffed00;}</style></defs><path class="cls-1" d="M142,146l52.78,3.18q-3.74,34.57-25.57,53t-53.66,18.45q-38.29,0-61.85-25.34t-23.57-70Q30.1,81.13,52.43,54t62.25-27.14q37.35,0,57.39,20.67t22.68,54.83l-53.88,2.9q0-18.88-7.23-27.28t-17-8.4q-27.28,0-27.29,54.82,0,30.72,7.11,41.75t19.91,11Q139.21,177.17,142,146Z"/><path class="cls-1" d="M375.35,29.77V217.83H317.64V144.66h-44.1v73.17H215.82V29.77h57.72V98.93h44.1V29.77Z"/><path class="cls-1" d="M465.72,29.77V217.83H408V29.77Z"/><path class="cls-1" d="M659.3,217.83h-47l-51.5-83.09a317.44,317.44,0,0,1-20-38.86q4.54,18.2,4.55,30.88v91.07H498.53V29.77h54.56L596.9,98.65q13.08,20.52,19.83,36.09a273.51,273.51,0,0,1-4.41-49.32V29.77h47Z"/><path class="cls-1" d="M142,381.06l52.78,3.18q-3.74,34.58-25.57,53t-53.66,18.46q-38.29,0-61.85-25.35t-23.57-70q0-44.22,22.33-71.37t62.25-27.13q37.35,0,57.39,20.66t22.68,54.83l-53.88,2.89c0-12.59-2.41-21.66-7.23-27.28s-10.5-8.4-17-8.4q-27.28,0-27.29,54.84,0,30.72,7.11,41.74t19.91,11Q139.21,412.21,142,381.06Z"/><path class="cls-1" d="M375.35,264.78V452.85H317.64V379.69h-44.1v73.16H215.82V264.78h57.72V334h44.1V264.78Z"/><path class="cls-1" d="M465.72,264.78V452.85H408V264.78Z"/><path class="cls-1" d="M659.3,452.85h-47l-51.5-83.1a316.12,316.12,0,0,1-20-38.83q4.54,18.19,4.55,30.86v91.07H498.53V264.78h54.56l43.81,68.89q13.08,20.52,19.83,36.1a273.51,273.51,0,0,1-4.41-49.32V264.78h47Z"/></svg>